<svg id="Layer_1" data-name="Layer 1" xmlns="http://www.w3.org/2000/svg" viewBox="0 0 100 100"><title>Adventure</title><path d="M67.26,26.05,49.79,65.61a4.29,4.29,0,0,0-3.95-2.72,4.51,4.51,0,0,0-.65,0,4.25,4.25,0,0,0-3.56,4.85L42,70.21H14.47l-.4-2.59L32.36,26.06Zm-20,40.88a1.42,1.42,0,1,0-2.81.43l.85,5.51a1.42,1.42,0,0,0,1.4,1.2l.22,0a1.42,1.42,0,0,0,1.18-1.62Zm44.47.43-.85,5.51a1.41,1.41,0,0,1-1.39,1.2l-.22,0a1.42,1.42,0,0,1-1.19-1.62l.85-5.5a1.42,1.42,0,1,1,2.8.43ZM70.15,26.54,85.92,67.71l-.38,2.51H69.22l0-22.14-9.4,22.14H50.85ZM12,72.43a1.42,1.42,0,0,1-1.19,1.62l-.21,0a1.41,1.41,0,0,1-1.4-1.2L8.3,67.36a1.42,1.42,0,1,1,2.8-.43Z"/></svg>