<svg id="Layer_1" data-name="Layer 1" xmlns="http://www.w3.org/2000/svg" viewBox="0 0 100 100"><title>Alam</title><path d="M64.69,49.15a36.74,36.74,0,0,0-5.76,11.19,132.43,132.43,0,0,0-1.6,19.85,6.65,6.65,0,0,0,3.44-1.72c.29-13.16,2.13-22.34,4.1-28.47C64.81,49.71,64.74,49.44,64.69,49.15ZM55.5,80.36c-.41-18.93-4.42-31.9-8.82-40.53a20.94,20.94,0,0,0-4.38-4.27,25.07,25.07,0,0,1,.07,3.56c3.12,5.47,6.25,13.23,8.1,23.87a10.54,10.54,0,0,1-2.38.29A11.05,11.05,0,0,1,42,61.44a11.08,11.08,0,0,1-12.23,0,11,11,0,0,1-6.11,1.84,10.91,10.91,0,0,1-5.51-1.48v4.36l.35.23a9.46,9.46,0,0,0,10.2,0l1-.67,1,.67a9.48,9.48,0,0,0,10.21,0l1-.67,1,.67a9.1,9.1,0,0,0,8.19,1c.08.66.17,1.33.24,2A11.09,11.09,0,0,1,48,69.9a11.32,11.32,0,0,1-6.11-1.79,11.49,11.49,0,0,1-12.24,0,11.46,11.46,0,0,1-11.57.36v3.88l.35.23a9.46,9.46,0,0,0,10.2,0l1-.67,1,.67a9.48,9.48,0,0,0,10.21,0l1-.67,1,.67a9.1,9.1,0,0,0,8.19,1l.62-.22c0,.67.09,1.37.13,2.07l-.08,0a10.83,10.83,0,0,1-3.76.68,11.32,11.32,0,0,1-6.11-1.79,11.49,11.49,0,0,1-12.24,0,11.46,11.46,0,0,1-11.57.36v5.73ZM17.78,54.14a5.72,5.72,0,1,1,5.72,5.71A5.71,5.71,0,0,1,17.78,54.14ZM71.45,37.37c4,.11,8.36-3.35,11.31-.59-.58-4.26-7.12-7-11.79-1,2.23-3.76-.13-7.06-1.1-10.06a9.84,9.84,0,0,0-2.1,8.63,14.08,14.08,0,0,0-8.32-6l-1.54.2c-1.42.18-3,.39-4.75.55,3.48,1.36,7.3,4.92,13,6.73-2.52-.11-6.69-.91-9.8.37a10.44,10.44,0,0,0-2.54,1.4,19.55,19.55,0,0,1-.81,3.79L52.6,42.8c2.1-1.89,6.81-1,13.58-4.49-5.51,3.55-11.91,9-8.74,19.1.67-6.62,9-13.81,10.79-18.23-3.73,10,3.57,16.09.57,24.7,6.42-10.69,4.5-17.68,2-24.29,3.75,7,10.09,8.14,11.78,12.55C83.26,45,77.14,38.05,71.45,37.37ZM18.22,47.85c1.51-8,10.31-9.46,14.77-19.23-1.48,8.64,1.24,20.66,7.31,27.81-5.09-9.8,3.53-18.27-4-28.65a34.88,34.88,0,0,0,5.13,3.76c2.9,1.86,7.15,5,8.88,9,3.37-10.68-4.81-13-12.57-15,15.26,3.21,25.15-2.69,29.71.79-2.33-3.1-11.31-8.13-22-5.61-3.21.75-6.89,1.71-8.36,2.06C43.3,18.35,47.79,11.14,52.5,9.5,43.84,9,36.7,15,34.86,21.59c-.37-4-2-7.26-5.18-9.33-.18,3.78-1.86,8.35,1.93,12-7.34-5.54-14-.23-13.35,4.89C20.8,25,27.07,26.9,31.55,26.25,24.85,28,16.75,35.63,18.22,47.85ZM65.89,78.11a1.43,1.43,0,0,0-1.89.68A8.26,8.26,0,0,1,60.69,82a10.82,10.82,0,0,1-3.37,1.07h0a12.22,12.22,0,0,1-1.66.12H46.22c-5.81,0-9.64.9-13.24,5.63a1.4,1.4,0,0,0,.27,2,1.35,1.35,0,0,0,.86.29,1.42,1.42,0,0,0,1.12-.55c2.64-3.46,5.2-4.51,11-4.51h9.44c8,0,10.79-5.79,10.9-6A1.41,1.41,0,0,0,65.89,78.11Zm-8.46,8.8,0,4.08h2.83l0-4.08Z"/></svg>