<svg id="Layer_1" data-name="Layer 1" xmlns="http://www.w3.org/2000/svg" viewBox="0 0 100 100"><title>Budaya</title><path d="M81.31,30.48l-.44-2.74H55.59c-.16-2.48-.42-4.92-.8-7.29l-.45-2.74H19.14l-.44,2.74a80.46,80.46,0,0,0-1,12.87c0,22.26,8.19,39.05,19.05,39.05,4.07,0,7.76-2.36,10.79-6.47,3.37,10.11,9,16.5,15.74,16.5,10.86,0,19-16.79,19-39.05A80.55,80.55,0,0,0,81.31,30.48ZM48.64,56.83h0c-.35.9-.72,1.77-1.1,2.59h0c-.2.41-.39.81-.6,1.2h0c-.2.39-.4.77-.62,1.13h0c-2.65,4.61-6,7.35-9.58,7.35C28,69.11,21,53.08,21,33.32a78,78,0,0,1,1-12.35H51.57c.35,2.17.6,4.44.76,6.77.07,1.07.12,2.16.15,3.26,0,.77.05,1.54.05,2.32A67.08,67.08,0,0,1,48.64,56.83Zm6.84-16.21h0c1.66-1,2.85-2.63,3.39-5.77a1,1,0,1,1,2,.34c-.81,4.66-3,6.62-5.58,7.78Zm-.58,5c2.53-.18,2.75-.79,3.15-2.84l3.61.7c-1,4.95-3.82,5.81-7.43,5.86C54.52,48,54.9,45.59,54.9,45.59ZM66.2,72c0-3.4-1.55-5.94-2.93-5.94S60.33,68.59,60.33,72H56.65c0-5.4,2.91-9.62,6.62-9.62s6.62,4.22,6.62,9.62Zm4.56-13.78a1.55,1.55,0,0,1-1.43-2.42c.74-1.36,1.43-2.59,1.43-2.59l1.43,2.59A1.55,1.55,0,0,1,70.76,58.21Zm3.83-8.87c-5,0-8.57,0-9.72-5.89l3.62-.7c.52,2.66.72,2.91,6.1,2.91Zm3-5.38a1,1,0,0,1-1,.71,1,1,0,0,1-.29-.05L75,44.2c-4.15-1.19-8.08-2.31-9.24-9a1,1,0,1,1,2-.34c1,5.47,3.84,6.3,7.84,7.45l1.46.42A1,1,0,0,1,77.62,44ZM34.71,36.78c-5.37,0-5.58.25-6.09,2.92L25,39c1.14-5.89,4.74-5.89,9.71-5.89ZM24.47,34.67a1,1,0,0,1-.88.53,1,1,0,0,1-.46-.11,1,1,0,0,1-.42-1.34c3.14-6,7.32-5.92,11.37-5.81a1,1,0,0,1,0,2h0C30.11,29.82,27,29.73,24.47,34.67Zm15.2,18.22h3.69c0,5.4-2.91,9.63-6.62,9.63s-6.62-4.23-6.62-9.63H33.8c0,3.4,1.55,5.94,2.94,5.94S39.67,56.29,39.67,52.89ZM48.41,39l-3.61.7c-.52-2.67-.72-2.92-6.1-2.92V33.1C43.67,33.1,47.27,33.1,48.41,39Zm2.23-5.25a1,1,0,0,1-.43,1.34.91.91,0,0,1-.45.11,1,1,0,0,1-.89-.53c-2.56-4.94-5.64-4.85-9.55-4.74h0a1,1,0,0,1,0-2C43.31,27.83,47.5,27.71,50.64,33.75Z"/></svg>