<svg id="Layer_1" data-name="Layer 1" xmlns="http://www.w3.org/2000/svg" viewBox="0 0 100 100"><title>Keluarga</title><path d="M25,69.88h0L23.09,51.27h27l-1.65,16C41,68.61,33.36,69.88,25,69.88ZM22.3,48.44H50.9l1.8-2.65V41.31H20.49l0,4.48ZM69.09,64.62a36.8,36.8,0,0,1,4,.21,46.34,46.34,0,0,0,3.11-7.67l2.13-6.75A2.69,2.69,0,0,0,76.58,47l-.14,0-1,3.26a4.4,4.4,0,0,1-4.19,3.07,4.3,4.3,0,0,1-1.33-.21A4.39,4.39,0,0,1,67,47.6l1-3.25-.14-.05a2.69,2.69,0,0,0-3.37,1.76l-2.13,6.75a35,35,0,0,0-2,12.48A65.75,65.75,0,0,1,69.09,64.62Zm-45.71-28A13.22,13.22,0,0,1,36.57,23.42h0A13.24,13.24,0,0,1,49.8,36.62v1.74h2.83l0-1.74a16.08,16.08,0,0,0-16.06-16h0a16.07,16.07,0,0,0-16,16.07v1.71h2.84ZM76.7,31.57a2.4,2.4,0,0,0-3,1.57L68.93,48.2a2.41,2.41,0,1,0,4.59,1.45l4.75-15.06A2.4,2.4,0,0,0,76.7,31.57Zm.15,3.28a1.13,1.13,0,1,1-.74-1.42A1.12,1.12,0,0,1,76.85,34.85ZM18.58,79.53V72.45c2.11.18,4.27.27,6.45.27,9.27,0,18-1.58,25.74-3,6.56-1.18,12.77-2.29,18.32-2.29a25.52,25.52,0,0,1,12.34,2.69v9.38Z"/></svg>