<svg id="Layer_1" data-name="Layer 1" xmlns="http://www.w3.org/2000/svg" viewBox="0 0 100 100"><title>Kuliner</title><path d="M51.3,24.19A24.66,24.66,0,1,0,76,48.85,24.7,24.7,0,0,0,51.3,24.19Zm0,47.34A22.68,22.68,0,1,1,74,48.85,22.7,22.7,0,0,1,51.3,71.53Zm0-43.37A20.69,20.69,0,1,0,72,48.85,20.71,20.71,0,0,0,51.3,28.16Zm0,37.7a17,17,0,1,1,17-17A17,17,0,0,1,51.3,65.86ZM25.39,38.62a5.21,5.21,0,0,1-2.78,5l-1.71.93v2.87H17.57V44.6l-1.77-1a5.14,5.14,0,0,1-2.72-5V25h1.83V38.37a.84.84,0,0,0,1.67,0V25h1.84V39.7a.83.83,0,1,0,1.66,0V25h1.84V38.37a.83.83,0,0,0,.83.83.84.84,0,0,0,.84-.83V25h1.8ZM82.8,44.44H79.4V27.49c0-5.59,3.23-5.59,6.72-5.59V47.51H82.8ZM65.48,48.85A14.18,14.18,0,1,1,51.3,34.68,14.17,14.17,0,0,1,65.48,48.85Zm-48,1.42a2.36,2.36,0,0,0-.65,1.62V75.81a2.41,2.41,0,0,0,4.82,0V51.89A2.39,2.39,0,0,0,21,50.27Zm69.28,1.3a2.35,2.35,0,0,0-.6-1.22H82.77a2.29,2.29,0,0,0-.63,1.58v.31a1.5,1.5,0,0,0,0,.22V75.81a2.41,2.41,0,1,0,4.81,0V52.46A2.39,2.39,0,0,0,86.76,51.57Z"/></svg>