<svg id="Layer_1" data-name="Layer 1" xmlns="http://www.w3.org/2000/svg" viewBox="0 0 100 100"><title>Belanja</title><path d="M84.37,44.44l-23-19.26H38.48L31.57,31V25.24H24.49V37l-8.86,7.47H13v3.68h7.49V74.94H79.28V48.12H87V44.44ZM75.6,71.26h0l0,.07-51.39-.07V42L38.48,30,60,48.12H75.6ZM35.87,61.18a3.27,3.27,0,0,1,.44,1.75,4.48,4.48,0,0,1-.34,1.8A3.67,3.67,0,0,1,35,66a4.07,4.07,0,0,1-1.52.74,7,7,0,0,1-1.95.25,10.61,10.61,0,0,1-2.46-.26,7.56,7.56,0,0,1-1.57-.53L28.32,64a5.67,5.67,0,0,0,.53.24c.22.09.47.17.74.25s.57.13.87.18a5.77,5.77,0,0,0,.94.08,3.27,3.27,0,0,0,1.75-.39,1.27,1.27,0,0,0,.6-1.16,1.19,1.19,0,0,0-.44-1,4.41,4.41,0,0,0-1.1-.68c-.44-.21-.92-.42-1.43-.64a6.72,6.72,0,0,1-1.44-.8,4,4,0,0,1-1.1-1.19,3.38,3.38,0,0,1-.44-1.8,4,4,0,0,1,.32-1.66,3.11,3.11,0,0,1,.9-1.16,3.94,3.94,0,0,1,1.39-.69,6.65,6.65,0,0,1,1.79-.22,11.32,11.32,0,0,1,2.15.19,5.37,5.37,0,0,1,1.66.57l-.8,2.14A4.72,4.72,0,0,0,34,55.83a7.18,7.18,0,0,0-1.78-.21,2.26,2.26,0,0,0-1.37.35,1.11,1.11,0,0,0-.47,1,1.14,1.14,0,0,0,.44.93,4.73,4.73,0,0,0,1.1.69l1.43.66a7.22,7.22,0,0,1,1.44.81A4.23,4.23,0,0,1,35.87,61.18Zm9.47-7.53H47.9V66.72H45.34V61.25H40.56v5.47H38V53.65h2.55V59h4.78Zm12.39.23a5.81,5.81,0,0,0-2.44-.48,5,5,0,0,0-4.11,1.76,7.75,7.75,0,0,0-1.43,5A10.93,10.93,0,0,0,50.08,63a5.91,5.91,0,0,0,1,2.14,4.47,4.47,0,0,0,1.72,1.38,5.73,5.73,0,0,0,2.47.49,5,5,0,0,0,4.09-1.76,7.73,7.73,0,0,0,1.45-5,10.43,10.43,0,0,0-.34-2.78,6.13,6.13,0,0,0-1-2.15A4.61,4.61,0,0,0,57.73,53.88Zm-.34,9.76a2.64,2.64,0,0,1-3.39.73,2.68,2.68,0,0,1-.89-.94A4.53,4.53,0,0,1,52.6,62a9.2,9.2,0,0,1-.17-1.81,6.16,6.16,0,0,1,.75-3.43,2.39,2.39,0,0,1,2.11-1.09,2.32,2.32,0,0,1,1.32.35,2.56,2.56,0,0,1,.88,1A4.91,4.91,0,0,1,58,58.41a9.06,9.06,0,0,1,.16,1.78A6.13,6.13,0,0,1,57.39,63.64Zm7.82-1.42.31,0,.44,0h.73a7.26,7.26,0,0,0,1.87-.24,4.55,4.55,0,0,0,1.61-.78,4,4,0,0,0,1.15-1.39,4.67,4.67,0,0,0,.42-2.08,4.33,4.33,0,0,0-.49-2.21A3.72,3.72,0,0,0,70,54.26a4.69,4.69,0,0,0-1.76-.63,11.75,11.75,0,0,0-1.95-.16c-.62,0-1.25,0-1.88.08s-1.2.14-1.72.24V66.72h2.55Zm0-6.46.54-.06c.23,0,.46,0,.71,0a4.94,4.94,0,0,1,1,.09,2.51,2.51,0,0,1,.84.34,1.79,1.79,0,0,1,.58.64,2.08,2.08,0,0,1,.23,1,2.43,2.43,0,0,1-.24,1.17,1.79,1.79,0,0,1-.62.71,2.58,2.58,0,0,1-.89.34,5.56,5.56,0,0,1-1,.1h-.23l-.33,0-.31,0-.23,0ZM38.48,35.1l10.33,8.71h-4v5.72H32.15V43.82h-4Z"/></svg>